<svg width="261" height="102" viewBox="0 0 261 102" fill="none" xmlns="http://www.w3.org/2000/svg">
<path d="M-13 22V0L110.5 0C110.5 0 121.5 -1.71661e-05 121.5 11C121.5 22 110.5 22 110.5 22H66.5001C66.5001 22 58.5001 22.2725 58.5001 31.1363C58.5001 40 66.5001 40 66.5001 40L144.5 40C144.5 40 156.5 39 156.5 50.5C156.5 62 144.5 62 144.5 62H93C93 62 83.5 62 83.5 71C83.5 80 93 80 93 80L248 80C248 80 260.5 79 260.5 90.5C260.5 102 248 102 248 102L-13 102V80H43.0001C43.0001 80 51.5001 80 51.5001 71C51.5001 62 43.0001 62 43.0001 62H-13V40H30.5001C30.5001 40 39.0001 40 39.0001 31.1363C39.0001 22.2725 30.5001 22 30.5001 22L-13 22Z" fill="#00C9CA" fill-opacity="0.27"/>
</svg>
