<svg width="304" height="102" viewBox="0 0 304 102" fill="none" xmlns="http://www.w3.org/2000/svg">
<path d="M101.5 21H47.5C47.5 21 38 21 38 10.5C38 0 47.5 0 47.5 0H101.5C101.5 0 112.5 0 112.5 10.5C112.5 21 101.5 21 101.5 21Z" fill="#00C9CA" fill-opacity="0.08"/>
<path d="M242.5 102.003L60.4039 102.003C60.4039 102.003 47 102.003 47 91.0032C47 80.0032 60.4039 80.0032 60.4039 80.0032L106.576 80.0032C106.576 80.0032 114.971 79.7307 114.971 70.8669C114.971 62.0032 106.576 62.0032 106.576 62.0032L12.1335 62.0032C12.1335 62.0032 0 62.5032 0 51.0032C0 39.5032 12.1335 40.0032 12.1335 40.0032L187 40.0032C187 40.0032 198 40.0032 198 31.0032C198 22.0032 187 22.0032 187 22.0032H144C144 22.0032 132 22.5032 132 11.0032C132 -0.496826 144 0.00317383 144 0.00317383L255 0.00317383C255 0.00317383 266 0.00317383 266 11.0032C266 22.0032 255 22.0032 255 22.0032H233.5C233.5 22.0032 223 22.0032 223 31.0032C223 40.0032 233.5 40.0032 233.5 40.0032L291.5 40.0032C291.5 40.0032 303.5 40.0032 303.5 51.0032C303.5 62.0032 291.5 62.0032 291.5 62.0032L158 62.0032C158 62.0032 148 62.0032 148 70.8669C148 79.7307 158 80.0032 158 80.0032L242.5 80.0032C242.5 80.0032 255 80.0032 255 91.0032C255 102.003 242.5 102.003 242.5 102.003Z" fill="#00C9CA" fill-opacity="0.08"/>
</svg>
