<svg width="261" height="102" viewBox="0 0 261 102" fill="none" xmlns="http://www.w3.org/2000/svg">
<path d="M26.5 0L234.5 0C234.5 0 247.5 -0.000306129 247.5 10.9997C247.5 21.9997 234.5 22 234.5 22L106 22C106 22 98.0001 22.2725 98.0001 31.1363C98.0001 40 106 40 106 40L247.5 40C247.5 40 261 39 261 50.5C261 62 247.5 62 247.5 62L132.5 62C132.5 62 123 62 123 71C123 80 132.5 80 132.5 80L152.5 80C152.5 80 167 79 167 90.5C167 102 152.5 102 152.5 102L-65 102C-65 102 -80 102 -80 90.5C-80 79 -65 80 -65 80H82.5001C82.5001 80 91.0001 80 91.0001 71C91.0001 62 82.5001 62 82.5001 62H42C42 62 28.5 62.5 28.5 51C28.5 39.5 42 40 42 40H70.0001C70.0001 40 78.5001 40 78.5001 31.1363C78.5001 22.2725 70.0001 22 70.0001 22L26.5 22C26.5 22 12 22 12 11C12 1.90735e-06 26.5 0 26.5 0Z" fill="#00C9CA" fill-opacity="0.06"/>
</svg>
