<svg width="288" height="62" viewBox="0 0 288 62" fill="none" xmlns="http://www.w3.org/2000/svg">
<path d="M19 0L172 0C172 0 189 -0.000307083 189 10.9997C189 21.9997 172 22 172 22H153C153 22 145 22.2725 145 31.1363C145 40 153 40 153 40L270 40C270 40 287.5 39.5 287.5 51C287.5 62.5 270 62 270 62L129.5 62L89 62C89 62 75.5 62.5 75.5 51C75.5 39.5 89 40 89 40L117 40C117 40 125.5 40 125.5 31.1363C125.5 22.2725 117 22 117 22L19 22C19 22 0 21.9997 0 10.9997C0 -0.00028801 19 0 19 0Z" fill="#00C9CA" fill-opacity="0.07"/>
<path d="M250 21H222C222 21 210 21 210 10.5C210 0 222 0 222 0H250C250 0 261 0 261 10.5C261 21 250 21 250 21Z" fill="#00C9CA" fill-opacity="0.07"/>
</svg>
