<svg width="341" height="102" viewBox="0 0 341 102" fill="none" xmlns="http://www.w3.org/2000/svg">
<path d="M106.5 0L314.5 0C314.5 0 327.5 -0.000306129 327.5 10.9997C327.5 21.9997 314.5 22 314.5 22L186 22C186 22 178 22.2725 178 31.1363C178 40 186 40 186 40L327.5 40C327.5 40 341 39 341 50.5C341 62 327.5 62 327.5 62L212.5 62C212.5 62 203 62 203 71C203 80 212.5 80 212.5 80L232.5 80C232.5 80 247 79 247 90.5C247 102 232.5 102 232.5 102L15 102C15 102 0 102 0 90.5C0 79 15 80 15 80H162.5C162.5 80 171 80 171 71C171 62 162.5 62 162.5 62H122C122 62 108.5 62.5 108.5 51C108.5 39.5 122 40 122 40H150C150 40 158.5 40 158.5 31.1363C158.5 22.2725 150 22 150 22L106.5 22C106.5 22 92 22 92 11C92 1.90735e-06 106.5 0 106.5 0Z" fill="#00C9CA" fill-opacity="0.13"/>
<path d="M72 61H44C44 61 32 61 32 50.5C32 40 44 40 44 40H72C72 40 83 40 83 50.5C83 61 72 61 72 61Z" fill="#00C9CA" fill-opacity="0.13"/>
</svg>
