<svg width="1280" height="397" viewBox="0 0 1280 397" fill="none" xmlns="http://www.w3.org/2000/svg">
<path d="M0.999865 210.569L0.999902 132.569C0.999902 132.569 28.9999 165.569 51.4999 167.569C73.9999 169.569 130.5 150.069 130.5 150.069L73.9999 198.569L0.999865 210.569Z" fill="url(#paint0_linear_309_18)"/>
<path d="M-33.5 198.069L-68 574.069L1290.5 574.069L1308 141.569C1308 141.569 1246.05 113.569 1182 113.569C1117.95 113.569 1050.14 192.069 869 192.069C687.859 192.069 521.5 -25.9307 341.5 2.56934C161.5 31.0693 144 174.069 67.5 188.069C-9 202.069 -33.5 198.069 -33.5 198.069Z" fill="#9AFFFE"/>
<path d="M-68.5 222.069L-78 574.069L1290.5 574.069L1322 158.569C1322 158.569 1262 124.569 1198 124.569C1134 124.569 1040 207.346 859 207.346C678 207.346 605 -6.93066 388.5 22.0693C172 51.0693 146 174.569 77.5 206.569C9 238.569 -68.5 222.069 -68.5 222.069Z" fill="url(#paint1_linear_309_18)"/>
<defs>
<linearGradient id="paint0_linear_309_18" x1="17.9999" y1="127.569" x2="32.9999" y2="211.569" gradientUnits="userSpaceOnUse">
<stop offset="0.442308" stop-color="#00EFF0"/>
<stop offset="1" stop-color="#008C8D"/>
</linearGradient>
<linearGradient id="paint1_linear_309_18" x1="352" y1="50.5693" x2="622" y2="574.069" gradientUnits="userSpaceOnUse">
<stop stop-color="#04E6E7"/>
<stop offset="1" stop-color="#017172"/>
</linearGradient>
</defs>
</svg>
