<svg width="274" height="102" viewBox="0 0 274 102" fill="none" xmlns="http://www.w3.org/2000/svg">
<path d="M0.5 22V-1.52588e-05L124 -1.52588e-05C124 -1.52588e-05 135 -3.24249e-05 135 11C135 22 124 22 124 22H80.0001C80.0001 22 72.0001 22.2725 72.0001 31.1362C72.0001 40 80.0001 40 80.0001 40L158 40C158 40 170 39 170 50.5C170 62 158 62 158 62H106.5C106.5 62 97 62 97 71C97 80 106.5 80 106.5 80L261.5 80C261.5 80 274 79 274 90.5C274 102 261.5 102 261.5 102L0.5 102V80H56.5001C56.5001 80 65.0001 80 65.0001 71C65.0001 62 56.5001 62 56.5001 62H0.5V40H44.0001C44.0001 40 52.5001 40 52.5001 31.1362C52.5001 22.2725 44.0001 22 44.0001 22L0.5 22Z" fill="#00C9CA" fill-opacity="0.15"/>
<path d="M216.5 21H162.5C162.5 21 153 21 153 10.5C153 0 162.5 0 162.5 0H216.5C216.5 0 227.5 0 227.5 10.5C227.5 21 216.5 21 216.5 21Z" fill="#00C9CA" fill-opacity="0.16"/>
</svg>
