<svg width="304" height="102" viewBox="0 0 304 102" fill="none" xmlns="http://www.w3.org/2000/svg">
<path d="M61 0L243.096 0C243.096 0 256.5 -1.71661e-05 256.5 11C256.5 22 243.096 22 243.096 22L196.924 22C196.924 22 188.529 22.2725 188.529 31.1363C188.529 40 196.924 40 196.924 40L291.367 40C291.367 40 303.5 39.5 303.5 51C303.5 62.5 291.367 62 291.367 62L116.5 62C116.5 62 105.5 62 105.5 71C105.5 80 116.5 80 116.5 80H159.5C159.5 80 171.5 79.5 171.5 91C171.5 102.5 159.5 102 159.5 102H48.5C48.5 102 37.5 102 37.5 91C37.5 80 48.5 80 48.5 80H70C70 80 80.5 80 80.5 71C80.5 62 70 62 70 62L12 62C12 62 0 62 0 51C0 40 12 40 12 40L145.5 40C145.5 40 155.5 40 155.5 31.1363C155.5 22.2725 145.5 22 145.5 22L61 22C61 22 48.5 22 48.5 11C48.5 1.90735e-06 61 0 61 0Z" fill="#00C9CA" fill-opacity="0.06"/>
<path d="M258.5 102H204.5C204.5 102 195 102 195 91.5C195 81 204.5 81 204.5 81H258.5C258.5 81 269.5 81 269.5 91.5C269.5 102 258.5 102 258.5 102Z" fill="#00C9CA" fill-opacity="0.06"/>
</svg>
