<svg width="274" height="102" viewBox="0 0 274 102" fill="none" xmlns="http://www.w3.org/2000/svg">
<path d="M0 22V0L123.5 0C123.5 0 134.5 -1.71661e-05 134.5 11C134.5 22 123.5 22 123.5 22H79.5001C79.5001 22 71.5001 22.2725 71.5001 31.1363C71.5001 40 79.5001 40 79.5001 40L157.5 40C157.5 40 169.5 39 169.5 50.5C169.5 62 157.5 62 157.5 62H106C106 62 96.5 62 96.5 71C96.5 80 106 80 106 80L261 80C261 80 273.5 79 273.5 90.5C273.5 102 261 102 261 102L0 102V80H56.0001C56.0001 80 64.5001 80 64.5001 71C64.5001 62 56.0001 62 56.0001 62H0V40H43.5001C43.5001 40 52.0001 40 52.0001 31.1363C52.0001 22.2725 43.5001 22 43.5001 22L0 22Z" fill="#00C9CA" fill-opacity="0.15"/>
</svg>
