<svg width="21" height="21" viewBox="0 0 21 21" fill="none" xmlns="http://www.w3.org/2000/svg">
<path d="M11.375 7L14.875 10.5M14.875 10.5L11.375 14M14.875 10.5H2.625M7 7V6.125C7 5.42881 7.27656 4.76113 7.76884 4.26884C8.26113 3.77656 8.92881 3.5 9.625 3.5H15.75C16.4462 3.5 17.1139 3.77656 17.6062 4.26884C18.0984 4.76113 18.375 5.42881 18.375 6.125V14.875C18.375 15.5712 18.0984 16.2389 17.6062 16.7312C17.1139 17.2234 16.4462 17.5 15.75 17.5H9.625C8.92881 17.5 8.26113 17.2234 7.76884 16.7312C7.27656 16.2389 7 15.5712 7 14.875V14" stroke="#05B0B1" stroke-width="2" stroke-linecap="round" stroke-linejoin="round"/>
</svg>
