<svg width="288" height="63" viewBox="0 0 288 63" fill="none" xmlns="http://www.w3.org/2000/svg">
<path d="M19.033 0L172.299 0C172.299 0 189.329 -0.000307617 189.329 11.0188C189.329 22.038 172.299 22.0383 172.299 22.0383H153.266C153.266 22.0383 145.252 22.3113 145.252 31.1904C145.252 40.0696 153.266 40.0696 153.266 40.0696L270.47 40.0696C270.47 40.0696 288 39.5687 288 51.0887C288 62.6087 270.47 62.1078 270.47 62.1078L129.725 62.1078L89.1548 62.1078C89.1548 62.1078 75.6313 62.6087 75.6313 51.0887C75.6313 39.5687 89.1548 40.0696 89.1548 40.0696L117.204 40.0696C117.204 40.0696 125.718 40.0696 125.718 31.1904C125.718 22.3113 117.204 22.0383 117.204 22.0383L19.033 22.0383C19.033 22.0383 0 22.038 0 11.0188C0 -0.000288511 19.033 0 19.033 0Z" fill="#00C9CA" fill-opacity="0.09"/>
</svg>
