<svg width="304" height="103" viewBox="0 0 304 103" fill="none" xmlns="http://www.w3.org/2000/svg">
<path d="M61.1005 0L243.497 0C243.497 0 256.923 -1.71944e-05 256.923 11.0181C256.923 22.0363 243.497 22.0362 243.497 22.0362L197.249 22.0362C197.249 22.0362 188.84 22.3092 188.84 31.1876C188.84 40.0659 197.249 40.0659 197.249 40.0659L291.847 40.0659C291.847 40.0659 304 39.5651 304 51.084C304 62.603 291.847 62.1021 291.847 62.1021L116.692 62.1021C116.692 62.1021 105.674 62.1021 105.674 71.117C105.674 80.1318 116.692 80.1318 116.692 80.1318H159.763C159.763 80.1318 171.783 79.631 171.783 91.1499C171.783 102.669 159.763 102.168 159.763 102.168H48.5799C48.5799 102.168 37.5618 102.168 37.5618 91.1499C37.5618 80.1318 48.5799 80.1318 48.5799 80.1318H70.1153C70.1153 80.1318 80.6326 80.1318 80.6326 71.117C80.6326 62.1021 70.1153 62.1021 70.1153 62.1021L12.0198 62.1021C12.0198 62.1021 0 62.1021 0 51.084C0 40.0659 12.0198 40.0659 12.0198 40.0659L145.74 40.0659C145.74 40.0659 155.756 40.0659 155.756 31.1876C155.756 22.3092 145.74 22.0362 145.74 22.0362L61.1005 22.0362C61.1005 22.0362 48.5799 22.0362 48.5799 11.0181C48.5799 1.91049e-06 61.1005 0 61.1005 0Z" fill="#00C9CA" fill-opacity="0.36"/>
</svg>
