<svg width="210" height="102" viewBox="0 0 210 102" fill="none" xmlns="http://www.w3.org/2000/svg">
<path d="M-64 22V0L59.5001 0C59.5001 0 70.5001 -1.71661e-05 70.5001 11C70.5001 22 59.5001 22 59.5001 22H15.5001C15.5001 22 7.50008 22.2725 7.50008 31.1363C7.50008 40 15.5001 40 15.5001 40L93.5 40C93.5 40 105.5 39 105.5 50.5C105.5 62 93.5 62 93.5 62H42C42 62 32.5 62 32.5 71C32.5 80 42 80 42 80L197 80C197 80 209.5 79 209.5 90.5C209.5 102 197 102 197 102L-64 102V80H-7.99992C-7.99992 80 0.500076 80 0.500076 71C0.500076 62 -7.99992 62 -7.99992 62H-64V40H-20.4999C-20.4999 40 -11.9999 40 -11.9999 31.1363C-11.9999 22.2725 -20.4999 22 -20.4999 22L-64 22Z" fill="#00C9CA" fill-opacity="0.11"/>
</svg>
