<svg width="621" height="667" viewBox="0 0 621 667" fill="none" xmlns="http://www.w3.org/2000/svg">
<path d="M0.084172 591C0.084172 591 86 569.5 125 564C164 558.5 204.5 555.5 230 557.5C255.5 559.5 271 564.5 271 564.5C271 564.5 302.25 576 308.5 578C314.75 580 335 585.264 356 586.499C377 587.735 406.5 585 437 580.5C467.5 576 507 563.499 507 563.499L557 544C557 544 533.5 557 507 568.5C480.5 580 463.5 584.5 456.5 586.5C449.5 588.499 419.5 596.5 397.25 598.25C375 599.999 351 601 330 598.25C309 595.499 294 590.5 276.5 586.499C259 582.499 242.5 579.499 223 579.499C203.5 579.499 166.5 582.5 125 592.999C83.5 603.499 0.0841907 652 0.0841907 652L0.084172 591Z" fill="#ABEBE7"/>
<path d="M-169.754 3.55811L-146 641C-146 641 166 518.5 283 570C400 621.5 575 543 596.5 520.5C618 498 653.559 435.963 549 372.999C444.441 310.035 361.975 324.116 248.445 280.058C134.916 235.999 244.48 83.8351 138.703 38.0813C32.9262 -7.67243 -169.754 3.55811 -169.754 3.55811Z" fill="#DAFCFA"/>
</svg>
